# ProBuilder 5.2.2
# https://unity3d.com/unity/features/worldbuilding/probuilder
# 3/12/2024 10:09:04 AM

mtllib ./Pipe.mtl
o Pipe

g Pipe
v -10.78864 2.146027 -3.242493E-05
v -11 3.242493E-05 -3.147125E-05
v -10.78864 2.146025 -20.00003
v -11 3.051758E-05 -20.00003
v -10 3.242493E-05 -3.147125E-05
v -9.807854 1.950935 -3.147125E-05
v -10 3.051758E-05 -20.00003
v -9.807854 1.950933 -20.00003
v -10.16267 4.209551 -3.242493E-05
v -10.16267 4.209549 -20.00003
v -9.238796 3.826868 -3.242493E-05
v -9.238796 3.826866 -20.00003
v -9.146166 6.111307 -3.242493E-05
v -9.146166 6.111305 -20.00003
v -8.314697 5.555737 -3.242493E-05
v -8.314697 5.555735 -20.00004
v -7.778175 7.778208 -3.242493E-05
v -7.778175 7.778206 -20.00003
v -7.071068 7.0711 -3.242493E-05
v -7.071068 7.071098 -20.00003
v -6.111273 9.1462 -3.242493E-05
v -6.111273 9.146198 -20.00003
v -5.555702 8.31473 -3.242493E-05
v -5.555702 8.314728 -20.00003
v -4.209517 10.16271 -3.242493E-05
v -4.209517 10.16271 -20.00004
v -3.826834 9.238829 -3.242493E-05
v -3.826834 9.238827 -20.00003
v -2.145994 10.78867 -3.242493E-05
v -2.145994 10.78867 -20.00003
v -1.950904 9.807886 -3.242493E-05
v -1.950904 9.807884 -20.00003
v 9.536743E-07 11.00003 -3.242493E-05
v 9.536743E-07 11.00003 -20.00003
v 0 10.00003 -3.242493E-05
v 0 10.00003 -20.00003
v 2.145993 10.78867 -3.242493E-05
v 2.145993 10.78867 -20.00003
v 1.950903 9.807886 -3.242493E-05
v 1.950903 9.807884 -20.00003
v 4.209517 10.16271 -3.242493E-05
v 4.209517 10.16271 -20.00004
v 3.826834 9.238829 -3.242493E-05
v 3.826834 9.238827 -20.00003
v 6.111272 9.1462 -3.242493E-05
v 6.111272 9.146198 -20.00003
v 5.555702 8.31473 -3.242493E-05
v 5.555702 8.314728 -20.00003
v 7.778174 7.778208 -3.242493E-05
v 7.778174 7.778206 -20.00003
v 7.071068 7.0711 -3.242493E-05
v 7.071068 7.071098 -20.00003
v 9.146166 6.111305 -3.242493E-05
v 9.146166 6.111303 -20.00003
v 8.314696 5.555735 -3.242493E-05
v 8.314696 5.555733 -20.00003
v 10.16267 4.209552 -3.242493E-05
v 10.16267 4.20955 -20.00003
v 9.238795 3.826868 -3.242493E-05
v 9.238795 3.826866 -20.00003
v 10.78864 2.146027 -3.242493E-05
v 10.78864 2.146025 -20.00003
v 9.807853 1.950935 -3.147125E-05
v 9.807853 1.950933 -20.00003
v 11 3.147125E-05 -3.147125E-05
v 11 2.95639E-05 -20.00003
v 10 3.147125E-05 -3.147125E-05
v 10 2.95639E-05 -20.00003
v 10.78864 -2.14596 -3.194809E-05
v 10.78864 -2.145962 -20.00003
v 9.807853 -1.95087 -3.147125E-05
v 9.807853 -1.950871 -20.00003
v 10.16267 -4.209486 -3.099442E-05
v 10.16267 -4.209488 -20.00003
v 9.238795 -3.826801 -3.147125E-05
v 9.238795 -3.826803 -20.00003
v 9.146165 -6.111241 -3.099442E-05
v 9.146165 -6.111244 -20.00003
v 8.314695 -5.555671 -3.099442E-05
v 8.314695 -5.555674 -20.00003
v 7.778175 -7.778142 -3.099442E-05
v 7.778175 -7.778145 -20.00003
v 7.071069 -7.071036 -3.099442E-05
v 7.071069 -7.071037 -20.00003
v 6.111275 -9.146132 -3.0756E-05
v 6.111275 -9.146133 -20.00003
v 5.555704 -8.314663 -3.099442E-05
v 5.555704 -8.314665 -20.00003
v 4.209519 -10.16264 -3.063679E-05
v 4.209519 -10.16265 -20.00003
v 3.826836 -9.238764 -3.0756E-05
v 3.826836 -9.238766 -20.00003
v 2.145994 -10.78861 -3.051758E-05
v 2.145994 -10.78861 -20.00003
v 1.950904 -9.807821 -3.063679E-05
v 1.950904 -9.807823 -20.00003
v 0 -10.99997 -3.051758E-05
v 0 -10.99997 -20.00003
v 0 -9.999969 -3.063679E-05
v 0 -9.999969 -20.00003
v -2.145994 -10.78861 -3.051758E-05
v -2.145994 -10.78861 -20.00003
v -1.950904 -9.807821 -3.063679E-05
v -1.950904 -9.807823 -20.00003
v -4.20952 -10.16264 -3.063679E-05
v -4.20952 -10.16265 -20.00003
v -3.826836 -9.238763 -3.0756E-05
v -3.826836 -9.238764 -20.00003
v -6.111271 -9.146135 -3.0756E-05
v -6.111271 -9.146137 -20.00003
v -5.5557 -8.314666 -3.099442E-05
v -5.5557 -8.314667 -20.00003
v -7.778173 -7.778144 -3.099442E-05
v -7.778173 -7.778147 -20.00003
v -7.071066 -7.071037 -3.099442E-05
v -7.071066 -7.071039 -20.00003
v -9.146166 -6.111241 -3.099442E-05
v -9.146166 -6.111244 -20.00003
v -8.314697 -5.555671 -3.099442E-05
v -8.314697 -5.555674 -20.00003
v -10.16267 -4.209486 -3.099442E-05
v -10.16267 -4.209488 -20.00003
v -9.238796 -3.826801 -3.147125E-05
v -9.238796 -3.826803 -20.00003
v -10.78864 -2.14596 -3.147125E-05
v -10.78864 -2.145962 -20.00003
v -9.807854 -1.95087 -3.147125E-05
v -9.807854 -1.950871 -20.00003

vt 9.951903 1.000046
vt 7.795527 1.000046
vt 9.951903 21.00005
vt 7.795527 21.00005
vt -7.893544 1.000046
vt -9.853886 1.000046
vt -7.893544 21.00005
vt -9.853886 21.00005
vt 7.454484 1.000046
vt 5.298107 1.000046
vt 7.454484 21.00005
vt 5.298107 21.00005
vt -5.396148 1.000046
vt -7.356491 1.000046
vt -5.396148 21.00005
vt -7.356491 21.00005
vt 4.712099 1.000046
vt 2.555721 1.000046
vt 4.712099 21.00005
vt 2.555721 21.00005
vt -2.653723 1.000046
vt -4.614067 1.000046
vt -2.653723 21.00005
vt -4.614067 21.00005
vt 1.829998 1.000046
vt -0.3263779 1.000046
vt 1.829998 21.00005
vt -0.3263779 21.00005
vt 0.2283825 1.000046
vt -1.73196 1.000046
vt 0.2283825 21.00005
vt -1.73196 21.00005
vt -1.080956 1.000046
vt -3.237334 1.000046
vt -1.080956 21.00005
vt -3.237334 21.00005
vt 3.139314 1.000046
vt 1.17897 1.000046
vt 3.139314 21.00005
vt 1.17897 21.00005
vt -3.908969 1.000046
vt -6.065346 1.000046
vt -3.908969 21.00005
vt -6.065346 21.00005
vt 5.967321 1.000046
vt 4.006978 1.000046
vt 5.967321 21.00005
vt 4.006978 21.00005
vt -6.545293 1.000046
vt -8.701669 1.000046
vt -6.545293 21.00005
vt -8.701669 21.00005
vt 8.60365 1.000046
vt 6.643308 1.000046
vt 8.60365 21.00005
vt 6.643308 21.00005
vt -8.888679 1.000046
vt -11.04506 1.000046
vt -8.888679 21.00005
vt -11.04506 21.00005
vt 10.94704 1.000046
vt 8.986695 1.000046
vt 10.94704 21.00005
vt 8.986695 21.00005
vt -10.84901 1.000046
vt -13.00539 1.000046
vt -10.84901 21.00005
vt -13.00539 21.00005
vt 12.90737 1.000046
vt 12.90737 21.00005
vt -12.35102 1.000046
vt -14.50739 1.000046
vt -12.35102 21.00005
vt -14.50739 21.00005
vt 14.40938 1.000046
vt 12.44903 1.000046
vt 14.40938 21.00005
vt 12.44903 21.00005
vt -13.33693 1.000046
vt -15.49331 1.000046
vt -13.33693 21.00005
vt -15.49331 21.00005
vt 15.39529 1.000046
vt 13.43495 1.000046
vt 15.39529 21.00005
vt 13.43495 21.00005
vt -13.76889 1.000046
vt -15.92527 1.000046
vt -13.76889 21.00005
vt -15.92527 21.00005
vt 15.82725 1.000046
vt 13.86691 1.000046
vt 15.82725 21.00005
vt 13.86691 21.00005
vt -13.63028 1.000046
vt -15.78666 1.000046
vt -13.63028 21.00005
vt -15.78666 21.00005
vt 15.68864 1.000046
vt 13.72829 1.000046
vt 15.68864 21.00005
vt 13.72829 21.00005
vt -12.92643 1.000046
vt -15.0828 1.000046
vt -12.92643 21.00005
vt -15.0828 21.00005
vt 14.98479 1.000046
vt 13.02445 1.000046
vt 14.98479 21.00005
vt 13.02445 21.00005
vt -11.68439 1.000046
vt -13.84077 1.000046
vt -11.68439 21.00005
vt -13.84077 21.00005
vt 13.74275 1.000046
vt 11.78241 1.000046
vt 13.74275 21.00005
vt 11.78241 21.00005
vt -9.951893 1.000046
vt -12.10827 1.000046
vt -9.951893 21.00005
vt -12.10827 21.00005
vt 12.01025 1.000046
vt 10.04991 1.000046
vt 12.01025 21.00005
vt 10.04991 21.00005
vt -7.795517 1.000046
vt -7.795517 21.00005
vt 9.853875 1.000046
vt 7.893535 1.000046
vt 9.853875 21.00005
vt 7.893535 21.00005
vt -5.298129 1.000046
vt -7.454506 1.000046
vt -5.298129 21.00005
vt -7.454506 21.00005
vt 7.35649 1.000046
vt 5.396146 1.000046
vt 7.35649 21.00005
vt 5.396146 21.00005
vt -2.5557 1.000046
vt -4.712078 1.000046
vt -2.5557 21.00005
vt -4.712078 21.00005
vt 4.614062 1.000046
vt 2.653717 1.000046
vt 4.614062 21.00005
vt 2.653717 21.00005
vt 0.3263724 1.000046
vt -1.830003 1.000046
vt 0.3263724 21.00005
vt -1.830003 21.00005
vt 1.731986 1.000046
vt -0.2283547 1.000046
vt 1.731986 21.00005
vt -0.2283547 21.00005
vt 3.237338 1.000046
vt 1.080963 1.000046
vt 3.237338 21.00005
vt 1.080963 21.00005
vt -1.178981 1.000046
vt -3.139323 1.000046
vt -1.178981 21.00005
vt -3.139323 21.00005
vt 6.06533 1.000046
vt 3.908952 1.000046
vt 6.06533 21.00005
vt 3.908952 21.00005
vt -4.006968 1.000046
vt -5.967312 1.000046
vt -4.006968 21.00005
vt -5.967312 21.00005
vt 8.701672 1.000046
vt 6.545294 1.000046
vt 8.701672 21.00005
vt 6.545294 21.00005
vt -6.643312 1.000046
vt -8.603655 1.000046
vt -6.643312 21.00005
vt -8.603655 21.00005
vt 11.04504 1.000046
vt 8.888667 1.000046
vt 11.04504 21.00005
vt 8.888667 21.00005
vt -8.986684 1.000046
vt -10.94703 1.000046
vt -8.986684 21.00005
vt -10.94703 21.00005
vt 13.0054 1.000046
vt 10.84902 1.000046
vt 13.0054 21.00005
vt 10.84902 21.00005
vt -12.90738 1.000046
vt -12.90738 21.00005
vt 14.50739 1.000046
vt 12.35102 1.000046
vt 14.50739 21.00005
vt 12.35102 21.00005
vt -12.44903 1.000046
vt -14.40938 1.000046
vt -12.44903 21.00005
vt -14.40938 21.00005
vt 15.49331 1.000046
vt 13.33694 1.000046
vt 15.49331 21.00005
vt 13.33694 21.00005
vt -13.43495 1.000046
vt -15.39529 1.000046
vt -13.43495 21.00005
vt -15.39529 21.00005
vt 15.92527 1.000046
vt 13.76889 1.000046
vt 15.92527 21.00005
vt 13.76889 21.00005
vt -13.8669 1.000046
vt -15.82725 1.000046
vt -13.8669 21.00005
vt -15.82725 21.00005
vt 15.78666 1.000046
vt 13.63028 1.000046
vt 15.78666 21.00005
vt 13.63028 21.00005
vt -13.72831 1.000046
vt -15.68865 1.000046
vt -13.72831 21.00005
vt -15.68865 21.00005
vt 15.0828 1.000046
vt 12.92642 1.000046
vt 15.0828 21.00005
vt 12.92642 21.00005
vt -13.02444 1.000046
vt -14.98478 1.000046
vt -13.02444 21.00005
vt -14.98478 21.00005
vt 13.84078 1.000046
vt 11.6844 1.000046
vt 13.84078 21.00005
vt 11.6844 21.00005
vt -11.78241 1.000046
vt -13.74275 1.000046
vt -11.78241 21.00005
vt -13.74275 21.00005
vt 12.10826 1.000046
vt 12.10826 21.00005
vt -10.0499 1.000046
vt -12.01025 1.000046
vt -10.0499 21.00005
vt -12.01025 21.00005
vt -22 10.00005
vt -21.78864 12.14604
vt -21 10.00005
vt -20.80785 11.95095
vt 21.78864 12.14604
vt 22 10.00005
vt 20.80785 11.95095
vt 21 10.00005
vt -21.16267 14.20956
vt -20.2388 13.82688
vt 21.16267 14.20956
vt 20.2388 13.82688
vt -20.14617 16.11132
vt -19.3147 15.55575
vt 20.14617 16.11132
vt 19.3147 15.55575
vt -18.77818 17.77822
vt -18.07107 17.07111
vt 18.77818 17.77822
vt 18.07107 17.07111
vt -17.11127 19.14621
vt -16.5557 18.31474
vt 17.11127 19.14621
vt 16.5557 18.31474
vt -15.20952 20.16272
vt -14.82683 19.23884
vt 15.20952 20.16272
vt 14.82683 19.23884
vt -13.14599 20.78868
vt -12.9509 19.8079
vt 13.14599 20.78868
vt 12.9509 19.8079
vt -11 21.00005
vt -11 20.00005
vt 11 21.00005
vt 11 20.00005
vt -8.854007 20.78868
vt -9.049097 19.8079
vt 8.854007 20.78868
vt 9.049097 19.8079
vt -6.790483 20.16272
vt -7.173166 19.23884
vt 6.790483 20.16272
vt 7.173166 19.23884
vt -4.888728 19.14621
vt -5.444298 18.31474
vt 4.888728 19.14621
vt 5.444298 18.31474
vt -3.221826 17.77822
vt -3.928932 17.07111
vt 3.221826 17.77822
vt 3.928932 17.07111
vt -1.853834 16.11132
vt -2.685304 15.55575
vt 1.853834 16.11132
vt 2.685304 15.55575
vt -0.8373251 14.20957
vt -1.761205 13.82688
vt 0.8373251 14.20957
vt 1.761205 13.82688
vt -0.2113619 12.14604
vt -1.192147 11.95095
vt 0.2113619 12.14604
vt 1.192147 11.95095
vt 0 10.00005
vt -1 10.00005
vt 1 10.00005
vt -0.2113619 7.854054
vt -1.192147 8.049145
vt 0.2113619 7.854054
vt 1.192147 8.049145
vt -0.8373251 5.790529
vt -1.761205 6.173213
vt 0.8373251 5.790529
vt 1.761205 6.173213
vt -1.853835 3.888773
vt -2.685305 4.444344
vt 1.853835 3.888773
vt 2.685305 4.444344
vt -3.221825 2.221873
vt -3.928931 2.928979
vt 3.221825 2.221873
vt 3.928931 2.928979
vt -4.888725 0.8538828
vt -5.444296 1.685352
vt 4.888725 0.8538828
vt 5.444296 1.685352
vt -6.790481 -0.1626282
vt -7.173164 0.7612514
vt 6.790481 -0.1626282
vt 7.173164 0.7612514
vt -8.854006 -0.7885914
vt -9.049096 0.192194
vt 8.854006 -0.7885914
vt 9.049096 0.192194
vt -11 -0.9999533
vt -11 4.673004E-05
vt 11 -0.9999533
vt 11 4.673004E-05
vt -13.14599 -0.7885914
vt -12.9509 0.192194
vt 13.14599 -0.7885914
vt 12.9509 0.192194
vt -15.20952 -0.1626272
vt -14.82684 0.7612524
vt 15.20952 -0.1626272
vt 14.82684 0.7612524
vt -17.11127 0.8538799
vt -16.5557 1.685349
vt 17.11127 0.8538799
vt 16.5557 1.685349
vt -18.77817 2.221871
vt -18.07107 2.928978
vt 18.77817 2.221871
vt 18.07107 2.928978
vt -20.14617 3.888773
vt -19.3147 4.444344
vt 20.14617 3.888773
vt 19.3147 4.444344
vt -21.16267 5.790529
vt -20.2388 6.173213
vt 21.16267 5.790529
vt 20.2388 6.173213
vt -21.78864 7.854054
vt -20.80785 8.049145
vt 21.78864 7.854054
vt 20.80785 8.049145

vn -0.9807853 0.1950905 -1.860528E-08
vn -1 -4.491978E-08 3.569903E-15
vn 1 2.620321E-08 -2.677428E-15
vn 0.9807854 -0.19509 1.860523E-08
vn -0.9238796 0.3826835 -3.649554E-08
vn 0.9238796 -0.3826832 3.649551E-08
vn -0.8314698 0.55557 -5.298328E-08
vn 0.8314694 -0.5555705 5.298333E-08
vn -0.7071068 0.7071067 -6.743495E-08
vn 0.7071066 -0.7071069 6.743497E-08
vn -0.5555701 0.8314697 -7.929512E-08
vn 0.5555703 -0.8314696 7.929511E-08
vn -0.3826832 0.9238796 -8.810801E-08
vn 0.3826834 -0.9238796 8.8108E-08
vn -0.1950901 0.9807853 -9.353496E-08
vn 0.1950902 -0.9807853 9.353496E-08
vn 6.363636E-08 1 -9.536743E-08
vn -2.620321E-08 -1 9.536743E-08
vn 0.1950901 0.9807853 -9.353496E-08
vn -0.1950901 -0.9807853 9.353497E-08
vn 0.3826833 0.9238796 -8.810802E-08
vn -0.3826834 -0.9238796 8.810801E-08
vn 0.5555702 0.8314697 -7.929512E-08
vn -0.5555703 -0.8314696 7.929512E-08
vn 0.7071069 0.7071066 -6.743495E-08
vn -0.7071069 -0.7071067 6.743494E-08
vn 0.8314695 0.5555704 -5.298332E-08
vn -0.8314695 -0.5555704 5.298331E-08
vn 0.9238794 0.3826835 -3.649554E-08
vn -0.9238795 -0.3826835 3.649553E-08
vn 0.9807853 0.1950902 -1.860525E-08
vn -0.9807853 -0.1950902 1.860525E-08
vn 0 4.443974E-07 1
vn 2.080744E-06 6.838604E-07 -1

usemtl Glass
f 3/3/1 4/4/2 2/2/2 1/1/1
f 7/7/3 8/8/4 6/6/4 5/5/3
f 10/11/5 3/12/1 1/10/1 9/9/5
f 8/15/4 12/16/6 11/14/6 6/13/4
f 14/19/7 10/20/5 9/18/5 13/17/7
f 12/23/6 16/24/8 15/22/8 11/21/6
f 18/27/9 14/28/7 13/26/7 17/25/9
f 16/31/8 20/32/10 19/30/10 15/29/8
f 22/35/11 18/36/9 17/34/9 21/33/11
f 20/39/10 24/40/12 23/38/12 19/37/10
f 26/43/13 22/44/11 21/42/11 25/41/13
f 24/47/12 28/48/14 27/46/14 23/45/12
f 30/51/15 26/52/13 25/50/13 29/49/15
f 28/55/14 32/56/16 31/54/16 27/53/14
f 34/59/17 30/60/15 29/58/15 33/57/17
f 32/63/16 36/64/18 35/62/18 31/61/16
f 38/67/19 34/68/17 33/66/17 37/65/19
f 36/70/18 40/63/20 39/61/20 35/69/18
f 42/73/21 38/74/19 37/72/19 41/71/21
f 40/77/20 44/78/22 43/76/22 39/75/20
f 46/81/23 42/82/21 41/80/21 45/79/23
f 44/85/22 48/86/24 47/84/24 43/83/22
f 50/89/25 46/90/23 45/88/23 49/87/25
f 48/93/24 52/94/26 51/92/26 47/91/24
f 54/97/27 50/98/25 49/96/25 53/95/27
f 52/101/26 56/102/28 55/100/28 51/99/26
f 58/105/29 54/106/27 53/104/27 57/103/29
f 56/109/28 60/110/30 59/108/30 55/107/28
f 62/113/31 58/114/29 57/112/29 61/111/31
f 60/117/30 64/118/32 63/116/32 59/115/30
f 66/121/3 62/122/31 61/120/31 65/119/3
f 64/125/32 68/126/2 67/124/2 63/123/32
f 70/128/4 66/121/3 65/119/3 69/127/4
f 68/131/2 72/132/1 71/130/1 67/129/2
f 74/135/6 70/136/4 69/134/4 73/133/6
f 72/139/1 76/140/5 75/138/5 71/137/1
f 78/143/8 74/144/6 73/142/6 77/141/8
f 76/147/5 80/148/7 79/146/7 75/145/5
f 82/151/10 78/152/8 77/150/8 81/149/10
f 80/155/7 84/156/9 83/154/9 79/153/7
f 86/159/12 82/160/10 81/158/10 85/157/12
f 84/163/9 88/164/11 87/162/11 83/161/9
f 90/167/14 86/168/12 85/166/12 89/165/14
f 88/171/11 92/172/13 91/170/13 87/169/11
f 94/175/16 90/176/14 89/174/14 93/173/16
f 92/179/13 96/180/15 95/178/15 91/177/13
f 98/183/18 94/184/16 93/182/16 97/181/18
f 96/187/15 100/188/17 99/186/17 95/185/15
f 102/191/20 98/192/18 97/190/18 101/189/20
f 100/188/17 104/194/19 103/193/19 99/186/17
f 106/197/22 102/198/20 101/196/20 105/195/22
f 104/201/19 108/202/21 107/200/21 103/199/19
f 110/205/24 106/206/22 105/204/22 109/203/24
f 108/209/21 112/210/23 111/208/23 107/207/21
f 114/213/26 110/214/24 109/212/24 113/211/26
f 112/217/23 116/218/25 115/216/25 111/215/23
f 118/221/28 114/222/26 113/220/26 117/219/28
f 116/225/25 120/226/27 119/224/27 115/223/25
f 122/229/30 118/230/28 117/228/28 121/227/30
f 120/233/27 124/234/29 123/232/29 119/231/27
f 126/237/32 122/238/30 121/236/30 125/235/32
f 124/241/29 128/242/31 127/240/31 123/239/29
f 4/244/2 126/3/32 125/1/32 2/243/2
f 128/247/31 7/248/3 5/246/3 127/245/31
f 5/251/33 6/252/33 1/250/33 2/249/33
f 8/255/34 7/256/34 4/254/34 3/253/34
f 6/252/33 11/258/33 9/257/33 1/250/33
f 12/260/34 8/255/34 3/253/34 10/259/34
f 11/258/33 15/262/33 13/261/33 9/257/33
f 16/264/34 12/260/34 10/259/34 14/263/34
f 15/262/33 19/266/33 17/265/33 13/261/33
f 20/268/34 16/264/34 14/263/34 18/267/34
f 19/266/33 23/270/33 21/269/33 17/265/33
f 24/272/34 20/268/34 18/267/34 22/271/34
f 23/270/33 27/274/33 25/273/33 21/269/33
f 28/276/34 24/272/34 22/271/34 26/275/34
f 27/274/33 31/278/33 29/277/33 25/273/33
f 32/280/34 28/276/34 26/275/34 30/279/34
f 31/278/33 35/282/33 33/281/33 29/277/33
f 36/284/34 32/280/34 30/279/34 34/283/34
f 35/282/33 39/286/33 37/285/33 33/281/33
f 40/288/34 36/284/34 34/283/34 38/287/34
f 39/286/33 43/290/33 41/289/33 37/285/33
f 44/292/34 40/288/34 38/287/34 42/291/34
f 43/290/33 47/294/33 45/293/33 41/289/33
f 48/296/34 44/292/34 42/291/34 46/295/34
f 47/294/33 51/298/33 49/297/33 45/293/33
f 52/300/34 48/296/34 46/295/34 50/299/34
f 51/298/33 55/302/33 53/301/33 49/297/33
f 56/304/34 52/300/34 50/299/34 54/303/34
f 55/302/33 59/306/33 57/305/33 53/301/33
f 60/308/34 56/304/34 54/303/34 58/307/34
f 59/306/33 63/310/33 61/309/33 57/305/33
f 64/312/34 60/308/34 58/307/34 62/311/34
f 63/310/33 67/314/33 65/313/33 61/309/33
f 68/315/34 64/312/34 62/311/34 66/313/34
f 67/314/33 71/317/33 69/316/33 65/313/33
f 72/319/34 68/315/34 66/313/34 70/318/34
f 71/317/33 75/321/33 73/320/33 69/316/33
f 76/323/34 72/319/34 70/318/34 74/322/34
f 75/321/33 79/325/33 77/324/33 73/320/33
f 80/327/34 76/323/34 74/322/34 78/326/34
f 79/325/33 83/329/33 81/328/33 77/324/33
f 84/331/34 80/327/34 78/326/34 82/330/34
f 83/329/33 87/333/33 85/332/33 81/328/33
f 88/335/34 84/331/34 82/330/34 86/334/34
f 87/333/33 91/337/33 89/336/33 85/332/33
f 92/339/34 88/335/34 86/334/34 90/338/34
f 91/337/33 95/341/33 93/340/33 89/336/33
f 96/343/34 92/339/34 90/338/34 94/342/34
f 95/341/33 99/345/33 97/344/33 93/340/33
f 100/347/34 96/343/34 94/342/34 98/346/34
f 99/345/33 103/349/33 101/348/33 97/344/33
f 104/351/34 100/347/34 98/346/34 102/350/34
f 103/349/33 107/353/33 105/352/33 101/348/33
f 108/355/34 104/351/34 102/350/34 106/354/34
f 107/353/33 111/357/33 109/356/33 105/352/33
f 112/359/34 108/355/34 106/354/34 110/358/34
f 111/357/33 115/361/33 113/360/33 109/356/33
f 116/363/34 112/359/34 110/358/34 114/362/34
f 115/361/33 119/365/33 117/364/33 113/360/33
f 120/367/34 116/363/34 114/362/34 118/366/34
f 119/365/33 123/369/33 121/368/33 117/364/33
f 124/371/34 120/367/34 118/366/34 122/370/34
f 123/369/33 127/373/33 125/372/33 121/368/33
f 128/375/34 124/371/34 122/370/34 126/374/34
f 127/373/33 5/251/33 2/249/33 125/372/33
f 7/256/34 128/375/34 126/374/34 4/254/34

