# ProBuilder 5.2.2
# https://unity3d.com/unity/features/worldbuilding/probuilder
# 3/12/2024 10:09:04 AM

mtllib ./Up.mtl
o Up

g Up
v 2.384185E-07 -6.000003 0
v -2.384187E-07 -5.000002 0
v 2.384185E-07 -6.000003 -20
v -2.384187E-07 -5.000002 -20
v -1.170542 -5.884713 -20
v -1.170542 -5.884713 0
v -0.9754518 -4.903928 -20
v -0.9754518 -4.903928 0
v -2.296101 -5.543279 -20
v -2.296101 -5.543279 0
v -3.333422 -4.98882 -20
v -3.333422 -4.98882 0
v -1.913418 -4.6194 -20
v -1.913418 -4.6194 0
v -4.242641 -4.242643 -20
v -4.242641 -4.242643 0
v -2.777852 -4.157351 -20
v -2.777852 -4.157351 0
v -4.988818 -3.333424 -20
v -4.988818 -3.333424 0
v -3.535535 -3.535536 -20
v -3.535535 -3.535536 0
v -5.543278 -2.296103 -20
v -5.543278 -2.296103 0
v -4.157349 -2.777853 -20
v -4.157349 -2.777853 0
v -5.884713 -1.170544 -20
v -5.884713 -1.170544 0
v -4.619398 -1.913419 -20
v -4.619398 -1.913419 0
v -6.000002 -2.384186E-06 -20
v -6.000002 -2.384186E-06 0
v -5.000001 -1.907349E-06 -20
v -4.903927 -0.9754539 -20
v -5.000001 -1.907349E-06 0
v -4.903927 -0.9754539 0

vt -6.000001 20
vt -5.000001 20
vt -6.000001 0
vt -5.000001 0
vt 0 -0.5881044
vt 0 0.5881014
vt 20 -0.5881044
vt 20 0.5881014
vt -3.25724E-09 -2.558975
vt -3.321054E-09 -3.347823
vt -20 -2.558975
vt -20 -3.347823
vt -3.068253E-09 -1.671787
vt -20 -1.671787
vt -2.761355E-09 -0.7203537
vt -20 -0.7203537
vt 0.5881035 0
vt -0.5881018 0
vt 0.5881035 20
vt -0.5881018 20
vt -2.34834E-09 0.2587629
vt -20 0.2587629
vt -1.845079E-09 1.227935
vt -20 1.227935
vt -1.270913E-09 2.149919
vt -20 2.149919
vt -7.918006E-16 3.713769
vt -6.479062E-10 2.989282
vt -20 3.713769
vt -20 2.989282
vt -20 5.000001
vt -20 6.000001
vt 0 5.000001
vt 0 6.000001
vt -5.884713 1.170543
vt -4.903928 0.9754522
vt 5.884713 1.170543
vt 6.000001 7.152557E-07
vt 4.903928 0.9754522
vt 5.000001 7.152557E-07
vt -5.543278 2.296101
vt -4.619399 1.913418
vt 5.543278 2.296101
vt 4.619399 1.913418
vt -4.988819 3.333422
vt -4.15735 2.777852
vt 4.988819 3.333422
vt 4.15735 2.777852
vt -4.242642 4.242641
vt -3.535535 3.535535
vt 4.242642 4.242641
vt 3.535535 3.535535
vt -3.333423 4.988818
vt -2.777853 4.157349
vt 3.333423 4.988818
vt 2.777853 4.157349
vt -2.296102 5.543278
vt -1.913419 4.619398
vt 2.296102 5.543278
vt 1.913419 4.619398
vt -1.170544 5.884712
vt -0.9754531 4.903927
vt 1.170544 5.884712
vt 0.9754531 4.903927

vn 1 4.768367E-07 0
vn -0.09801824 -0.9951846 0
vn -0.1950908 -0.9807852 0
vn 0.2271672 0.9738558 0
vn 0.09801718 0.9951847 0
vn 0.1628028 0.9866586 0
vn -0.3826831 -0.9238797 0
vn -0.55557 -0.8314698 0
vn 0.4127922 0.9108252 0
vn 0.3521619 0.9359391 0
vn -0.7071068 -0.7071067 0
vn 0.5825539 0.8127921 0
vn 0.5279882 0.8492517 0
vn -0.8314697 -0.5555702 0
vn 0.7299283 0.6835237 0
vn 0.6835239 0.7299281 0
vn -0.9238795 -0.3826836 0
vn 0.8492518 0.5279881 0
vn 0.8127922 0.5825537 0
vn -0.9807852 -0.1950909 0
vn 0.9359388 0.3521626 0
vn 0.9108251 0.4127925 0
vn -0.9951847 -0.09801791 0
vn 0.9951847 0.09801762 0
vn 0.9866585 0.1628035 0
vn 0.9738556 0.2271681 0
vn -4.768369E-07 1 0
vn 0 0 1
vn 0 0 -1

usemtl Way
f 8/11/6 4/10/5 7/9/4
f 8/11/6 2/12/5 4/10/5
f 35/29/24 34/28/25 33/27/24
f 35/29/24 36/30/26 34/28/25
f 36/30/26 29/25/21 34/28/25
f 36/30/26 30/26/22 29/25/21
f 30/26/22 25/23/18 29/25/21
f 30/26/22 26/24/19 25/23/18
f 26/24/19 21/21/15 25/23/18
f 26/24/19 22/22/16 21/21/15
f 22/22/16 17/15/12 21/21/15
f 22/22/16 18/16/13 17/15/12
f 18/16/13 13/13/9 17/15/12
f 18/16/13 14/14/10 13/13/9
f 14/14/10 7/9/4 13/13/9
f 14/14/10 8/11/6 7/9/4
f 4/4/1 2/2/1 1/1/1
f 1/1/1 3/3/1 4/4/1
f 6/8/3 5/6/3 3/5/2
f 3/5/2 1/7/2 6/8/3
f 10/8/7 9/6/7 5/5/3
f 5/5/3 6/7/3 10/8/7
f 12/8/8 11/6/8 9/5/7
f 9/5/7 10/7/7 12/8/8
f 16/8/11 15/6/11 11/5/8
f 11/5/8 12/7/8 16/8/11
f 20/20/14 19/18/14 15/17/11
f 15/17/11 16/19/11 20/20/14
f 24/20/17 23/18/17 19/17/14
f 19/17/14 20/19/14 24/20/17
f 28/20/20 27/18/20 23/17/17
f 23/17/17 24/19/17 28/20/20
f 32/20/23 31/18/23 27/17/20
f 27/17/20 28/19/20 32/20/23
f 31/34/27 32/32/27 35/31/27
f 35/31/27 33/33/27 31/34/27
f 8/36/28 6/35/28 1/3/28
f 1/3/28 2/4/28 8/36/28
f 4/40/29 3/38/29 5/37/29
f 5/37/29 7/39/29 4/40/29
f 14/42/28 10/41/28 6/35/28
f 6/35/28 8/36/28 14/42/28
f 7/39/29 5/37/29 9/43/29
f 9/43/29 13/44/29 7/39/29
f 18/46/28 12/45/28 10/41/28
f 10/41/28 14/42/28 18/46/28
f 13/44/29 9/43/29 11/47/29
f 11/47/29 17/48/29 13/44/29
f 22/50/28 16/49/28 12/45/28
f 12/45/28 18/46/28 22/50/28
f 17/48/29 11/47/29 15/51/29
f 15/51/29 21/52/29 17/48/29
f 26/54/28 20/53/28 16/49/28
f 16/49/28 22/50/28 26/54/28
f 21/52/29 15/51/29 19/55/29
f 19/55/29 25/56/29 21/52/29
f 30/58/28 24/57/28 20/53/28
f 20/53/28 26/54/28 30/58/28
f 25/56/29 19/55/29 23/59/29
f 23/59/29 29/60/29 25/56/29
f 36/62/28 28/61/28 24/57/28
f 24/57/28 30/58/28 36/62/28
f 29/60/29 23/59/29 27/63/29
f 27/63/29 34/64/29 29/60/29
f 35/33/28 32/34/28 28/61/28
f 28/61/28 36/62/28 35/33/28
f 34/64/29 27/63/29 31/34/29
f 31/34/29 33/33/29 34/64/29

